<svg xmlns="http://www.w3.org/2000/svg" viewBox="0 0 210.69 210.69"><defs><style>.cls-1{fill:#fff;}</style></defs><title>NoSignInIcon</title><g id="Layer_2" data-name="Layer 2"><g id="Layer_2-2" data-name="Layer 2"><path class="cls-1" d="M105.35,0A105.35,105.35,0,1,0,210.69,105.35,105.35,105.35,0,0,0,105.35,0Zm1.05,45.3A33.71,33.71,0,1,1,72.69,79,33.71,33.71,0,0,1,106.4,45.3Zm59,97.07a12.49,12.49,0,0,1-12.49,12.49H57.79A12.49,12.49,0,0,1,45.3,142.37v-4.22A25.76,25.76,0,0,1,80.05,114c10.15,3.81,16.24,5,25.3,5.07a63.15,63.15,0,0,0,24.81-4.54,25.87,25.87,0,0,1,35.23,24.06Z"/></g></g></svg>