<svg xmlns="http://www.w3.org/2000/svg" viewBox="0 0 1242.84 1374.33"><defs><style>.cls-1{fill:#fff;}</style></defs><title>TempLogo</title><g id="Layer_2" data-name="Layer 2"><g id="Layer_2-2" data-name="Layer 2"><path class="cls-1" d="M552.06,218.27A591.31,591.31,0,0,1,722.93,246a585.79,585.79,0,0,1,366.24,340.84,574.58,574.58,0,0,1-268.81,724.42A562.17,562.17,0,0,1,89,1118.67,552.35,552.35,0,0,1,.06,809.27a552.09,552.09,0,0,0,26,159.57,546.69,546.69,0,0,0,318.46,341.51,541.5,541.5,0,0,0,312.41,26,534.12,534.12,0,0,0,362.69-277.24A523.14,523.14,0,0,0,839.76,378.62a513.44,513.44,0,0,0-287.7-82.35Z"/><path class="cls-1" d="M809.6,320a552.71,552.71,0,0,1,129.32,97.43A547.48,547.48,0,0,1,1093.21,859,537.14,537.14,0,0,1,710.5,1318.72a533.76,533.76,0,0,1-154.68,21.64A524,524,0,0,1,36.32,863.67a514.43,514.43,0,0,1,61.12-293.5A513.77,513.77,0,0,0,49.89,712.94a508.42,508.42,0,0,0,114.75,418.91,503.31,503.31,0,0,0,245.9,156.3,496,496,0,0,0,417.82-71.55,487.51,487.51,0,0,0,104.39-99.17,492.74,492.74,0,0,0,70.76-124.72,483.29,483.29,0,0,0-29.67-412.38A475.42,475.42,0,0,0,773.3,389.07Z"/><path class="cls-1" d="M422.26,9.6S785-80.63,984.47,292c0,0-306-160.08-463.26-70,0,0,256.54-27.12,391.63,126.55,0,0-277.92,159.35-403.19,97.75S316.8,199.7,27,120.82Z"/><path class="cls-1" d="M1138.09,1240.62s-99.47,133.74-273.66,61.76c0,0,150.75-31.42,179.45-107,0,0-80.73,81.93-170.77,67.2,0,0,50.69-133.56,111.29-147.77s136.25,30.42,258.44-24.4Z"/><path class="cls-1" d="M745.12,764.13s58.94,222.68,290.45,225.71c0,0-161.09-121.05-162.61-232,0,0,59,147.1,169.23,177.07,0,0-2.63-196.13-66.72-246.79S805.24,653.05,687,517.83Z"/></g></g></svg>